<?xml version="1.0" encoding="UTF-8" standalone="no"?>
<!-- Created with Pixodesk SVG (https://pixodesk.com) -->
<svg xmlns="http://www.w3.org/2000/svg" viewBox="0 0 24 24" text-rendering="geometricPrecision" shape-rendering="geometricPrecision" fill="none">
  <path fill="#ffffff" fill-rule="evenodd" d="M12,2.181C12.0002,1.9021,12.1551,1.6464,12.4022,1.5171C12.6493,1.3878,12.9477,1.4062,13.177,1.565L17.609,4.633C17.8116,4.773,17.9326,5.0037,17.9326,5.25C17.9326,5.4963,17.8116,5.727,17.609,5.867L13.177,8.935C12.9479,9.0937,12.6497,9.1122,12.4027,8.9831C12.1557,8.8541,12.0006,8.5987,12,8.32L12,6C8.134,6,5,9.134,5,13C5,16.866,8.134,20,12,20C15.866,20,19,16.866,19,13C19,12.4477,19.4477,12,20,12C20.5523,12,21,12.4477,21,13C21,17.9706,16.9706,22,12,22C7.0294,22,3,17.9706,3,13C3,8.0294,7.0294,4,12,4L12,2.181z"/>
</svg>