<?xml version="1.0" encoding="UTF-8" standalone="no"?>
<!-- Created with Pixodesk SVG (https://pixodesk.com) -->
<svg xmlns="http://www.w3.org/2000/svg" viewBox="0 0 1024 1024" text-rendering="geometricPrecision" shape-rendering="geometricPrecision">
  <path fill="#0a7b7b" d="M981.504,556.032L958.976,564.224C865.792,598.528,803.328,651.776,773.632,722.432C751.104,774.656,756.224,818.176,756.224,818.176L760.32,849.408L738.304,826.88C695.808,782.336,646.144,765.44,591.872,776.704C550.912,785.408,522.24,806.912,522.24,806.912L521.728,807.424L521.728,989.696L500.736,989.696L500.736,800.256C417.28,744.96,278.016,816.128,276.48,817.152L256.512,827.904L261.632,805.888C298.496,644.608,66.048,558.592,63.488,557.568L29.696,545.28L64.512,537.6C146.944,519.168,121.856,388.608,121.856,387.072L118.272,369.664L135.168,374.784C168.448,385.024,195.584,384,216.064,371.712C245.248,354.304,251.904,320.512,251.904,320L261.12,271.872L272.384,319.488C280.064,351.744,332.288,390.144,361.472,408.576C387.072,330.752,334.336,203.776,333.824,202.24L326.656,184.832L345.088,187.904C471.04,207.36,504.32,65.024,505.344,58.88L514.048,19.456L525.312,58.368C545.28,125.44,573.952,167.424,611.328,183.808C648.704,199.68,680.448,184.32,680.96,184.32L708.096,171.008L695.296,198.144C659.456,273.408,664.064,366.08,668.16,404.992L774.656,309.76L779.776,325.12C802.304,394.24,904.192,374.272,904.704,373.76L923.648,369.664L916.48,387.584C873.984,498.688,956.928,542.72,960.512,544.256L981.504,556.032zM933.376,551.936C907.776,530.944,865.792,481.792,890.88,397.824C849.92,401.92,790.016,394.752,764.928,346.624L652.8,446.464L649.728,428.032C648.704,422.912,629.248,309.76,667.136,209.92C651.264,212.992,628.224,213.504,603.648,202.752C569.856,187.904,542.208,156.16,521.728,108.032L521.728,351.744C524.8,355.328,524.288,359.424,521.728,361.984L521.728,462.336C532.992,448.512,543.744,434.688,555.008,420.864C562.176,412.16,574.464,424.448,567.296,433.152C551.936,452.096,537.088,471.04,521.728,489.984L521.728,669.184C558.08,630.784,594.432,591.872,633.856,556.544C634.88,536.064,635.392,515.072,635.904,494.592C636.416,483.328,653.824,483.328,653.312,494.592C652.8,509.952,652.288,524.8,651.776,540.16C675.328,519.168,700.416,497.152,728.576,485.888C738.816,481.792,743.424,498.688,733.184,502.784C716.8,509.44,701.952,522.752,688.128,533.504C672.256,546.304,656.384,559.616,641.536,572.928C630.272,583.68,619.52,593.92,609.28,604.16C644.096,621.056,680.96,632.32,718.848,638.464C730.112,640.512,724.992,656.896,714.24,655.36C673.792,648.704,635.392,636.416,598.528,618.496C597.504,617.984,596.992,617.472,596.48,616.96C571.392,642.56,546.816,669.184,521.728,694.784L521.728,782.336C540.16,771.072,578.56,752.64,624.64,752.64C658.944,752.64,697.856,762.88,735.744,795.136C736.768,775.68,740.864,747.52,754.176,715.264C774.656,665.088,822.784,597.504,933.376,551.936zM500.736,776.192L500.736,640L499.712,640C457.728,625.664,416.768,609.28,376.32,590.848C376.32,592.896,375.296,594.432,373.248,595.968C347.136,616.448,317.952,631.296,285.696,638.976C274.944,641.536,270.336,624.64,281.088,622.08C310.272,614.912,336.896,602.112,360.96,583.168C360.448,582.656,359.424,582.656,358.912,582.144C335.36,570.88,312.32,558.592,289.792,545.792C267.776,532.992,246.272,519.68,220.672,515.584C209.408,513.536,214.528,497.152,225.28,498.688C247.808,502.272,267.776,513.024,287.744,524.288C302.08,532.48,315.904,540.16,330.24,547.84C329.216,525.824,327.168,504.32,323.072,482.304C321.024,471.04,337.92,466.432,339.968,477.696C344.576,502.272,347.136,526.848,348.16,551.936C348.16,553.472,347.648,555.008,347.136,556.032C350.208,557.568,352.768,559.104,355.84,560.64C383.488,574.464,411.136,586.752,439.296,598.016C437.76,558.592,434.688,519.168,430.08,479.744C428.544,468.48,446.464,468.48,447.488,479.744C452.608,521.216,455.68,563.2,456.704,605.184C471.04,610.816,485.376,615.936,499.712,620.544L499.712,353.792C478.208,331.264,460.8,305.664,447.488,276.992C442.88,266.752,457.728,258.048,462.336,268.288C472.576,289.792,484.864,309.248,499.712,327.168L499.712,123.904C475.648,165.888,432.64,212.48,358.4,208.896C373.248,249.856,406.528,357.888,375.296,426.496L370.688,436.736L360.96,431.104C357.376,429.056,291.328,390.656,262.656,347.136C256,360.448,244.736,376.32,226.304,387.584C203.776,400.896,176.128,403.968,144.384,396.8C150.016,444.928,144.384,516.608,94.208,545.792C117.76,556.544,154.624,575.488,189.952,602.624C259.584,656.896,292.352,720.384,284.672,787.968C326.144,772.096,426.496,736.768,500.736,776.192z"/>
  <path fill="#63afab" d="M890.88,397.312C865.792,481.792,907.776,530.432,933.376,551.424C822.784,597.504,774.656,665.088,753.664,714.752C740.352,747.008,736.256,775.168,735.232,794.624C697.344,762.88,658.432,752.128,624.128,752.128C578.048,752.128,540.16,770.56,521.216,781.824L521.216,694.784C546.304,669.184,570.88,642.56,595.968,616.96C596.48,617.472,597.504,617.984,598.016,618.496C634.88,636.416,673.28,648.704,713.728,655.36C724.48,657.408,729.6,640.512,718.336,638.464C679.936,632.32,643.584,621.056,608.768,604.16C619.008,593.92,629.76,583.68,640.512,573.952C655.36,560.128,671.232,546.816,687.104,534.528C700.928,523.776,715.776,510.464,732.16,503.808C742.4,499.712,737.792,482.816,727.552,486.912C699.904,498.176,674.304,520.192,650.752,541.184C651.264,525.824,651.776,510.464,652.288,495.616C652.8,484.352,635.392,484.352,634.88,495.616C634.368,516.096,633.344,537.088,632.832,557.568C593.408,592.896,557.568,631.808,520.704,670.208L520.704,491.008C536.064,472.064,550.912,453.12,566.272,434.176C573.44,425.472,561.152,413.184,553.984,421.888C542.72,435.712,531.968,449.536,520.704,463.36L520.704,363.008C523.264,359.936,523.776,355.84,520.704,352.768L520.704,109.056C541.184,157.184,568.832,188.928,602.624,203.776C627.2,214.528,650.24,214.016,666.112,210.944C628.224,310.784,647.68,423.936,648.704,429.056L651.776,447.488L763.904,347.136C790.528,394.24,850.432,401.408,890.88,397.312zM500.736,640L500.736,775.68C426.496,736.256,326.144,771.584,285.184,789.504C292.864,722.432,260.096,658.944,190.464,604.16C155.136,576.512,118.272,557.568,94.72,547.328C144.896,518.656,150.528,446.464,144.896,398.336C177.152,405.504,204.288,402.432,226.816,389.12C245.248,377.856,256.512,361.984,263.168,348.672C291.84,392.704,358.4,431.104,361.472,433.152L371.2,438.784L375.808,428.544C407.552,359.424,373.76,251.392,358.912,210.944C432.64,215.04,476.16,167.936,500.224,125.952L500.224,329.216C485.376,311.296,473.088,291.328,462.848,270.336C458.24,260.096,442.88,268.8,448,279.04C461.312,307.2,478.72,332.8,500.224,355.84L500.224,622.592L457.216,607.232C455.68,565.248,452.608,523.776,448,481.792C446.464,470.528,429.056,470.528,430.592,481.792C435.2,521.216,438.272,560.64,439.808,600.064C411.648,588.8,383.488,576.512,356.352,562.688C353.28,561.152,350.72,559.616,347.648,558.08C348.16,557.056,348.672,555.52,348.672,553.984C347.648,528.896,345.088,504.32,340.48,479.744C338.432,468.48,321.536,473.6,323.584,484.352C327.68,505.856,329.728,527.872,330.752,549.888C316.416,542.208,302.08,534.528,288.256,526.336C268.288,515.072,248.832,504.32,225.792,500.736C214.528,499.2,209.92,515.584,221.184,517.632C246.784,521.728,268.288,535.04,290.304,547.84C312.832,560.64,335.872,572.928,359.424,584.192C359.936,584.704,360.96,584.704,361.472,585.216C337.408,603.648,310.784,616.448,281.6,624.128C270.848,626.688,275.456,643.584,286.208,641.024C318.464,632.832,347.648,618.496,373.76,598.016C375.808,596.48,376.832,594.432,376.832,592.896C416.768,611.328,458.24,627.712,500.224,642.048C499.712,640,500.224,640,500.736,640z"/>
</svg>