<?xml version="1.0" encoding="UTF-8" standalone="no"?>
<!-- Created with Pixodesk SVG (https://pixodesk.com) -->
<svg xmlns="http://www.w3.org/2000/svg" viewBox="0 0 24 24" text-rendering="geometricPrecision" shape-rendering="geometricPrecision" fill="none">
  <path stroke="#ffffff" stroke-width="1.5" stroke-linecap="round" stroke-linejoin="round" d="M21.96,13.4199C21.8233,12.3214,21.326,11.2993,20.546,10.5139C19.766,9.7284,18.7474,9.2241,17.65,9.0798C17.1768,7.7547,16.2529,6.6382,15.0399,5.9252C13.8269,5.2122,12.4019,4.948,11.0139,5.1791C9.626,5.4103,8.3634,6.122,7.4469,7.1896C6.5304,8.2573,6.0183,9.613,6,11.02C4.9391,11.02,3.9217,11.4412,3.1716,12.1913C2.4214,12.9415,2,13.9591,2,15.02C2,16.0808,2.4214,17.0982,3.1716,17.8483C3.9217,18.5985,4.9391,19.02,6,19.02L11,19.02"/>
  <path stroke="#ffffff" stroke-width="1.5" stroke-linecap="round" stroke-linejoin="round" d="M14,18.6501L16.76,21.6501L22,16.3501"/>
</svg>