<?xml version="1.0" encoding="UTF-8" standalone="no"?>
<!-- Created with Pixodesk SVG (https://pixodesk.com) -->
<svg xmlns="http://www.w3.org/2000/svg" viewBox="0 0 512 512" text-rendering="geometricPrecision" shape-rendering="geometricPrecision">
  <path fill="#c5c5c5" d="M417.392,161.896L409.808,161.896C402.272,130.168,373.68,106.392,339.472,106.392C331.168,106.392,322.752,108.216,315.792,110.552C299.072,63.064,253.76,28.968,200.352,28.968C132.736,28.968,77.904,83.512,77.904,150.808C77.904,155.048,78.128,159.24,78.544,163.352C34.112,171,0,209.704,0,256.024C0,307.8,42.576,350.168,94.608,350.168L417.392,350.168C469.424,350.168,512,307.8,512,256.024C512,204.264,469.424,161.896,417.392,161.896z"/>
  <ellipse fill="#2a9d63" cx="256" cy="345.576" rx="137.456" ry="137.456"/>
  <path fill="#ffffff" d="M231.28,409.704L185.184,360.904L196.8,349.912L230.976,386.088L315.04,292.488L326.944,303.176"/>
</svg>