<?xml version="1.0" encoding="UTF-8" standalone="no"?>
<!-- Created with Pixodesk SVG (https://pixodesk.com) -->
<svg xmlns="http://www.w3.org/2000/svg" viewBox="0 0 46.028 46.028" text-rendering="geometricPrecision" shape-rendering="geometricPrecision" fill="#000000">
  <g>
    <g fill="#ffffff">
      <path d="M29.21,42.117C28.874,41.935,28.254,41.615,27.983,41.419C24.275,39.208,24.233,35.379,24.233,35.379C24.275,34.713,23.795,34.111,23.124,34.023C20.418,33.664,21.2,40.756,25.661,44.435C26.049,44.799,26.702,45.26,27.17,45.601C29.447,47.276,31.934,43.588,29.21,42.117z"/>
      <path d="M41.823,20.208C40.484,19.952,38.802,19.685,36.982,19.526C38.97,15.669,40.304,11.573,41.054,8.91C41.426,7.584,40.204,6.359,38.876,6.732C36.365,7.439,32.58,8.667,28.921,10.471C27.614,6.654,25.829,3.158,24.567,0.904C23.889,-0.305,22.133,-0.297,21.459,0.904C20.196,3.158,18.412,6.654,17.105,10.471C13.447,8.666,9.661,7.439,7.15,6.732C5.829,6.36,4.601,7.579,4.975,8.91C5.724,11.573,7.058,15.669,9.046,19.526C3.886,19.975,3.188,20.354,2.853,21.411C2.659,22.031,2.82,22.706,3.273,23.172C5.003,24.953,7.654,27.424,10.597,29.251C7.915,31.044,7.094,31.741,7.364,32.959C7.507,33.607,8.002,34.12,8.645,34.287C15.778,36.14,20.2,34.962,22.612,33.082C22.007,29.106,23.441,29.564,14.009,32.162C13.713,32.245,13.551,31.819,13.83,31.684L19.822,28.779C20.46,28.468,20.415,27.543,19.746,27.297L12.705,24.736C12.405,24.626,12.541,24.172,12.853,24.246L19.299,25.808C20.051,25.992,20.603,25.105,20.108,24.511L12.619,15.523C12.533,15.419,12.542,15.266,12.641,15.173C12.74,15.08,12.893,15.081,12.992,15.174L20.496,22.292C21.008,22.779,21.861,22.413,21.855,21.7C21.783,15.25,22.318,9.291,22.65,7.941C22.745,7.563,23.284,7.565,23.378,7.941C23.852,9.845,24.189,16.954,24.174,19.07C24.196,21.424,23.94,22.135,24.656,22.447C24.953,22.576,25.297,22.515,25.531,22.292L33.036,15.174C33.27,14.954,33.612,15.28,33.409,15.523L25.92,24.511C25.43,25.101,25.975,25.992,26.73,25.808L33.177,24.246C33.489,24.17,33.624,24.626,33.323,24.736C26.552,27.199,25.801,27.138,25.753,28.012C25.737,28.334,25.915,28.637,26.206,28.779L32.198,31.684C32.476,31.819,32.317,32.246,32.018,32.162C22.524,29.548,24.015,29.17,23.415,33.082C25.822,34.955,30.238,36.144,37.383,34.287C38.026,34.12,38.521,33.607,38.663,32.959C38.949,31.67,37.967,30.946,35.432,29.251C38.374,27.425,41.025,24.954,42.756,23.172C43.737,22.161,43.197,20.473,41.823,20.208z"/>
    </g>
  </g>
</svg>