<?xml version="1.0" encoding="UTF-8" standalone="no"?>
<!-- Created with Pixodesk SVG (https://pixodesk.com) -->
<svg xmlns="http://www.w3.org/2000/svg" viewBox="0 0 24 24" text-rendering="geometricPrecision" shape-rendering="geometricPrecision" fill="#000000">
  <path fill="#ffffff" d="M8,17L11,17L11,21L8,21C7.4477,21,7,21.4477,7,22C7,22.5523,7.4477,23,8,23L16,23C16.5523,23,17,22.5523,17,22C17,21.4477,16.5523,21,16,21L13,21L13,17L16,17C18.5688,17.0026,20.7216,15.0583,20.9797,12.5025C21.2379,9.9467,19.5174,7.6112,17,7.1L17,6C17,3.2386,14.7614,1,12,1C9.2386,1,7,3.2386,7,6L7,7.1C4.4826,7.6112,2.7621,9.9467,3.0203,12.5025C3.2784,15.0583,5.4312,17.0026,8,17zM8,9C8.5523,9,9,8.5523,9,8L9,6C9,4.3431,10.3431,3,12,3C13.6569,3,15,4.3431,15,6L15,8C15,8.5523,15.4477,9,16,9C17.6569,9,19,10.3431,19,12C19,13.6569,17.6569,15,16,15L13,15L13,14.414L15.707,11.707C16.086,11.3146,16.0806,10.6909,15.6948,10.3052C15.3091,9.9194,14.6854,9.914,14.293,10.293L13,11.586L13,9C13,8.4477,12.5523,8,12,8C11.4477,8,11,8.4477,11,9L11,11.586L9.707,10.293C9.3146,9.914,8.6909,9.9194,8.3052,10.3052C7.9194,10.6909,7.914,11.3146,8.293,11.707L11,14.414L11,15L8,15C6.3431,15,5,13.6569,5,12C5,10.3431,6.3431,9,8,9z"/>
</svg>