<?xml version="1.0" encoding="UTF-8" standalone="no"?>
<!-- Created with Pixodesk SVG (https://pixodesk.com) -->
<svg xmlns="http://www.w3.org/2000/svg" viewBox="0 0 512 512" text-rendering="geometricPrecision" shape-rendering="geometricPrecision" fill="#000000">
  <g fill="#ffffff" transform="translate(-1, -1)">
    <g>
      <g>
        <path d="M402.067,179.2L274.067,8.533C265.534,-2.845,248.467,-2.845,239.934,8.533L111.934,179.2C101.386,193.264,111.421,213.333,129.001,213.333L193.001,213.333L193.001,298.666C193.001,310.448,202.552,319.999,214.334,319.999L299.667,319.999C311.449,319.999,321,310.448,321,298.666L321,213.333L385,213.333C402.58,213.333,412.614,193.264,402.067,179.2zM299.667,170.667C287.885,170.667,278.334,180.218,278.334,192L278.334,277.333L235.667,277.333L235.667,192C235.667,180.218,226.116,170.667,214.334,170.667L171.667,170.667L257,56.889L342.333,170.667L299.667,170.667z"/>
        <path d="M299.667,341.333L214.334,341.333C202.552,341.333,193.001,350.884,193.001,362.666C193.001,374.448,202.551,384,214.333,384L299.666,384C311.448,384,320.999,374.449,320.999,362.667C320.999,350.885,311.449,341.333,299.667,341.333z"/>
        <path d="M299.667,405.333L214.334,405.333C202.552,405.333,193.001,414.884,193.001,426.666C193.001,438.448,202.551,448,214.333,448L299.666,448C311.448,448,320.999,438.449,320.999,426.667C320.999,414.885,311.449,405.333,299.667,405.333z"/>
        <path d="M299.667,469.333L214.334,469.333C202.552,469.333,193.001,478.884,193.001,490.666C193.001,502.448,202.551,512,214.333,512L299.666,512C311.448,512,320.999,502.449,320.999,490.667C320.999,478.885,311.449,469.333,299.667,469.333z"/>
      </g>
    </g>
  </g>
</svg>